<?xml version="1.0" encoding="utf-8"?>
<!-- Generator: Adobe Illustrator 14.0.0, SVG Export Plug-In . SVG Version: 6.00 Build 43363)  -->
<!DOCTYPE svg PUBLIC "-//W3C//DTD SVG 1.1//EN" "http://www.w3.org/Graphics/SVG/1.1/DTD/svg11.dtd">
<svg version="1.1" id="Layer_1" xmlns="http://www.w3.org/2000/svg" xmlns:xlink="http://www.w3.org/1999/xlink" x="0px" y="0px"
	 width="100px" height="100px" viewBox="0 0 100 100" enable-background="new 0 0 100 100" xml:space="preserve">
<path fill="#FFFFFF" d="M84.387,31.294c-0.006-3.904-1.187-9.82-7.266-14.255c-2.887-2.102-6.631-3.308-10.273-3.308
	c-2.429,0-4.82,0.53-7.076,1.554C53.587,6.39,44.968,4.95,40.043,4.95c-4.726,0-9.523,1.292-12.833,3.457
	c-8.204,5.365-12.165,13.375-11.375,22.801C8.51,34.624,3.639,41.986,3.639,50.156c0,11.522,9.373,20.893,20.893,20.893h0.103
	c1.342-1.673,5.519-6.865,6.489-8h-6.592c-7.109,0-12.893-5.783-12.893-12.893c0-5.77,3.975-10.896,9.665-12.467l3.578-0.988
	l-0.718-3.642c-1.518-7.702,0.98-13.743,7.425-17.958c1.518-0.993,4.643-2.152,8.454-2.152c4.52,0,10.752,1.67,14.775,9.627
	l2.188,4.327l3.832-2.97c1.887-1.461,3.907-2.203,6.01-2.203c2.901,0,4.992,1.358,5.563,1.772c4.47,3.261,4.156,7.869,3.814,9.698
	l-0.652,3.493l3.393,1.06c5.885,1.837,9.396,6.473,9.396,12.402c0,7.109-5.783,12.893-12.894,12.893h-1.854
	c-1.961,2.279-5.236,6.015-6.98,8h8.836c11.521,0,20.893-9.372,20.893-20.893C96.359,41.771,91.85,34.79,84.387,31.294z"/>
<polygon fill="#FFFFFF" points="56.801,38.918 49.265,71.049 30.845,71.049 "/>
<polygon fill="#FFFFFF" points="41.698,94.322 48.415,63.048 66.835,63.048 "/>
</svg>
