<?xml version="1.0" encoding="utf-8"?>
<!-- Generator: Adobe Illustrator 14.0.0, SVG Export Plug-In . SVG Version: 6.00 Build 43363)  -->
<!DOCTYPE svg PUBLIC "-//W3C//DTD SVG 1.1//EN" "http://www.w3.org/Graphics/SVG/1.1/DTD/svg11.dtd">
<svg version="1.1" id="Layer_1" xmlns="http://www.w3.org/2000/svg" xmlns:xlink="http://www.w3.org/1999/xlink" x="0px" y="0px"
	 width="100px" height="100px" viewBox="0 0 100 100" enable-background="new 0 0 100 100" xml:space="preserve">
<path fill="#010101" d="M84.885,33.614c0.059-3.785-0.982-9.739-7.057-14.171c-1.326-0.966-4.953-3.212-9.98-3.212
	c-2.533,0-4.961,0.563-7.254,1.679C54.518,8.896,45.926,7.45,41.044,7.45c-4.632,0-9.328,1.262-12.559,3.375
	c-8.139,5.323-12.018,13.301-11.119,22.69C10.038,36.784,5.14,44.064,5.14,52.156c0,11.244,9.148,20.393,20.393,20.393h1.717
	c3.657-4.377,1.953-2.365,5.875-7h-7.592c-7.385,0-13.393-6.008-13.393-13.393c0-5.994,4.125-11.319,10.032-12.949l3.131-0.864
	l-0.628-3.187c-1.562-7.921,1.01-14.136,7.641-18.473c1.576-1.03,4.807-2.233,8.728-2.233c4.66,0,11.083,1.718,15.22,9.901
	l1.915,3.786l3.354-2.599c1.975-1.531,4.1-2.308,6.314-2.308c3.054,0,5.257,1.432,5.857,1.869c4.699,3.428,4.371,8.271,4.012,10.194
	l-0.571,3.057l2.969,0.927c6.104,1.906,9.747,6.72,9.747,12.879c0,7.385-6.008,13.393-13.393,13.393H72.5
	c-1.532,2.005-3.562,4.457-5.375,7h9.344c11.244,0,20.393-9.148,20.393-20.393C96.861,43.866,92.342,36.982,84.885,33.614z"/>
<polygon fill="#010101" points="56.861,43.013 49.934,72.549 33.001,72.549 "/>
<polygon fill="#010101" points="43.932,94.25 50.107,65.501 67.04,65.501 "/>
</svg>
